<svg xmlns="http://www.w3.org/2000/svg" width="52.888" height="52.888" viewBox="0 0 52.888 52.888">
  <g id="Hamburger_menu" data-name="Hamburger menu" transform="translate(-88.378 -115)">
    <path id="Ligne_79" data-name="Ligne 79" d="M54.795,5H0A5,5,0,0,1-5,0,5,5,0,0,1,0-5H54.795a5,5,0,0,1,5,5A5,5,0,0,1,54.795,5Z" transform="translate(95.449 122.071) rotate(45)" fill="#b7b5ab"/>
    <path id="Ligne_81" data-name="Ligne 81" d="M54.795,5H0A5,5,0,0,1-5,0,5,5,0,0,1,0-5H54.795a5,5,0,0,1,5,5A5,5,0,0,1,54.795,5Z" transform="translate(95.449 160.817) rotate(-45)" fill="#b7b5ab"/>
  </g>
</svg>
