<svg xmlns="http://www.w3.org/2000/svg" width="21.071" height="21.102" viewBox="0 0 21.071 21.102">
  <path id="linkedin-original" d="M19.553,0h-18A1.541,1.541,0,0,0,0,1.517V19.586A1.541,1.541,0,0,0,1.55,21.1H19.52a1.541,1.541,0,0,0,1.55-1.517V1.517A1.492,1.492,0,0,0,19.553,0ZM6.265,17.97H3.132V7.913H6.265ZM4.682,6.529A1.813,1.813,0,1,1,6.5,4.715,1.788,1.788,0,0,1,4.682,6.529ZM17.97,17.97H14.838V13.09c0-1.154-.033-2.671-1.616-2.671-1.616,0-1.879,1.286-1.879,2.572V17.97H8.21V7.913h3V9.3h.033a3.315,3.315,0,0,1,2.968-1.616c3.165,0,3.759,2.077,3.759,4.814V17.97Z" fill="#aa8f01"/>
</svg>
