<svg id="fi-sr-link" xmlns="http://www.w3.org/2000/svg" width="21.097" height="21.102" viewBox="0 0 21.097 21.102">
  <path id="Tracé_14710" data-name="Tracé 14710" d="M12.234,187.974l-2.868,2.868a4.42,4.42,0,0,1-6.252-6.25l2.868-2.87a.879.879,0,1,0-1.244-1.243l-2.867,2.87a6.179,6.179,0,0,0,8.741,8.736l2.868-2.868a.879.879,0,0,0-1.243-1.243h0Z" transform="translate(-0.062 -172.794)" fill="#aa8f01"/>
  <path id="Tracé_14711" data-name="Tracé 14711" d="M192.111,1.812A6.136,6.136,0,0,0,187.742,0h0a6.139,6.139,0,0,0-4.368,1.808L180.5,4.678a.879.879,0,1,0,1.243,1.244l2.87-2.868a4.39,4.39,0,0,1,3.125-1.3h0A4.42,4.42,0,0,1,190.865,9.3L188,12.172a.88.88,0,1,0,1.244,1.244h0l2.868-2.866A6.187,6.187,0,0,0,192.111,1.812Z" transform="translate(-172.819 0)" fill="#aa8f01"/>
  <path id="Tracé_14712" data-name="Tracé 14712" d="M175.995,171.177l-5.275,5.275a.879.879,0,1,0,1.222,1.265l.022-.022,5.275-5.275a.879.879,0,0,0-1.243-1.243Z" transform="translate(-163.429 -163.886)" fill="#aa8f01"/>
</svg>
