<svg xmlns="http://www.w3.org/2000/svg" width="64.795" height="58.992" viewBox="0 0 64.795 58.992">
  <g id="Hamburger_menu" data-name="Hamburger menu" transform="translate(-76.471 -107.672)">
    <path id="Ligne_79" data-name="Ligne 79" d="M54.795,5H0A5,5,0,0,1-5,0,5,5,0,0,1,0-5H54.795a5,5,0,0,1,5,5A5,5,0,0,1,54.795,5Z" transform="translate(81.471 112.672)" fill="#b7b5ab"/>
    <path id="Ligne_80" data-name="Ligne 80" d="M31.029,5H0A5,5,0,0,1-5,0,5,5,0,0,1,0-5H31.029a5,5,0,0,1,5,5A5,5,0,0,1,31.029,5Z" transform="translate(81.471 137.168)" fill="#b7b5ab"/>
    <path id="Ligne_81" data-name="Ligne 81" d="M54.795,5H0A5,5,0,0,1-5,0,5,5,0,0,1,0-5H54.795a5,5,0,0,1,5,5A5,5,0,0,1,54.795,5Z" transform="translate(81.471 161.664)" fill="#b7b5ab"/>
  </g>
</svg>
