<svg id="_36-mail" data-name="36-mail" xmlns="http://www.w3.org/2000/svg" width="28.137" height="21.102" viewBox="0 0 28.137 21.102">
  <path id="Tracé_14706" data-name="Tracé 14706" d="M27.253,25.1H.879A.879.879,0,0,1,0,24.22V4.879A.879.879,0,0,1,.879,4H27.253a.879.879,0,0,1,.879.879V24.22A.879.879,0,0,1,27.253,25.1ZM1.758,23.341H26.374V5.758H1.758Z" transform="translate(0.005 -3.996)" fill="#aa8f01"/>
  <path id="Tracé_14707" data-name="Tracé 14707" d="M14.065,18.944a.879.879,0,0,1-.624-.255L.254,5.5A.883.883,0,0,1,1.5,4.254L14.065,16.826,26.628,4.254a.879.879,0,0,1,1.24,1.24L14.681,18.681A.879.879,0,0,1,14.065,18.944Z" transform="translate(0.006 -3.996)" fill="#aa8f01"/>
  <path id="Tracé_14708" data-name="Tracé 14708" d="M.878,26.434a.879.879,0,0,1-.624-1.5l9.67-9.67a.879.879,0,0,1,1.24,1.24l-9.67,9.67A.879.879,0,0,1,.878,26.434Z" transform="translate(0.006 -5.332)" fill="#aa8f01"/>
  <path id="Tracé_14709" data-name="Tracé 14709" d="M29.555,26.436a.879.879,0,0,1-.624-.255l-9.67-9.67a.879.879,0,0,1,1.24-1.24l9.67,9.67a.879.879,0,0,1-.615,1.494Z" transform="translate(-2.298 -5.333)" fill="#aa8f01"/>
</svg>
