<svg id="WA_Logo" xmlns="http://www.w3.org/2000/svg" width="21.036" height="21.102" viewBox="0 0 21.036 21.102">
  <g id="Groupe_874" data-name="Groupe 874" transform="translate(0)">
    <path id="Tracé_14705" data-name="Tracé 14705" d="M18.07,3.066A10.468,10.468,0,0,0,.2,10.452a10.829,10.829,0,0,0,1.385,5.243L.1,21.1l5.572-1.451a10.49,10.49,0,0,0,5.012,1.286h0A10.468,10.468,0,0,0,18.07,3.066ZM10.651,19.157h0A8.86,8.86,0,0,1,6.2,17.937l-.33-.2-3.3.857.89-3.2-.2-.33a8.821,8.821,0,0,1-1.319-4.616,8.688,8.688,0,1,1,8.7,8.7Zm4.781-6.5c-.264-.132-1.55-.758-1.813-.824-.231-.1-.429-.132-.594.132s-.692.824-.824,1.022a.4.4,0,0,1-.561.066,6.946,6.946,0,0,1-2.11-1.319A7.719,7.719,0,0,1,8.079,9.925c-.165-.264-.033-.4.132-.528a5.741,5.741,0,0,0,.4-.462,3.01,3.01,0,0,0,.264-.429.459.459,0,0,0-.033-.462c-.066-.132-.594-1.418-.824-1.945-.2-.528-.429-.429-.594-.429H6.925A.949.949,0,0,0,6.233,6,2.955,2.955,0,0,0,5.31,8.177a4.88,4.88,0,0,0,1.088,2.7,11.7,11.7,0,0,0,4.451,3.957c.626.264,1.121.429,1.484.561a3.612,3.612,0,0,0,1.649.1,2.628,2.628,0,0,0,1.781-1.253,2.968,2.968,0,0,0,.165-1.253C15.861,12.826,15.7,12.76,15.432,12.661Z" transform="translate(-0.1)" fill="#aa8f01"/>
  </g>
</svg>
