<svg xmlns="http://www.w3.org/2000/svg" width="147.659" height="33.757" viewBox="0 0 147.659 33.757">
  <g id="Logo_GARA" data-name="Logo GARA" opacity="0.51">
    <g id="Logo_GARA-2" data-name="Logo_GARA" transform="translate(0 0)">
      <path id="Tracé_963" data-name="Tracé 963" d="M29.534,15.562V34.55h-6.95V33.5c-.868.352-1.911.527-2.78.879a16.926,16.926,0,0,1-2.953.352A15.542,15.542,0,0,1,10.424,33.5,14.1,14.1,0,0,1,5.212,29.8a21.953,21.953,0,0,1-3.649-5.274A15.074,15.074,0,0,1,0,17.848a20.524,20.524,0,0,1,.521-4.572A16.694,16.694,0,0,1,2.258,9.233a15.746,15.746,0,0,1,2.605-3.34,15.577,15.577,0,0,1,3.3-2.638,27.52,27.52,0,0,1,4-1.758A19.809,19.809,0,0,1,16.678.969a17.31,17.31,0,0,1,6.775,1.406,16.9,16.9,0,0,1,5.386,3.868l-5.386,5.449A12.156,12.156,0,0,0,20.5,9.408a9.378,9.378,0,0,0-3.822-.879,14.574,14.574,0,0,0-2.954.7,18.915,18.915,0,0,0-2.605,1.406,5.56,5.56,0,0,0-1.911,2.11,17.851,17.851,0,0,0-1.216,2.638H29.534v.176Zm-7.123,6.5H8.686a9.1,9.1,0,0,0,3.3,3.517,8.662,8.662,0,0,0,4.691,1.406,9.728,9.728,0,0,0,3.127-.527,6.524,6.524,0,0,0,2.605-1.582V22.067Z" transform="translate(0 -0.969)" fill="#f5f5f5" fill-rule="evenodd"/>
      <path id="Tracé_964" data-name="Tracé 964" d="M65.331,34.726H26.867l1.915-3.341L46.012.969l17.4,30.24,1.915,3.517ZM46.012,14.507,38.354,28.045H53.67Z" transform="translate(7.933 -0.969)" fill="#f5f5f5" fill-rule="evenodd"/>
      <path id="Tracé_965" data-name="Tracé 965" d="M86.261,34.551h-7.85L71.26,22.308l-3.663,3.5v8.92H60.618V.969h25.12v7l-9.42,9.445,9.944,17.141ZM76.492,7.965H67.77v8.92Z" transform="translate(17.899 -0.969)" fill="#f5f5f5" fill-rule="evenodd"/>
      <path id="Tracé_966" data-name="Tracé 966" d="M122.767,34.5H84.3l1.915-3.318L103.449.969,120.853,31l1.914,3.493ZM103.449,14.415,95.791,27.86h15.316Z" transform="translate(24.892 -0.969)" fill="#f5f5f5" fill-rule="evenodd"/>
    </g>
  </g>
</svg>
