<svg xmlns="http://www.w3.org/2000/svg" width="76.405" height="17.467" viewBox="0 0 76.405 17.467">
  <g id="LOGO" style="isolation: isolate">
    <g id="Logo_GARA" transform="translate(0 0)" style="mix-blend-mode: screen;isolation: isolate">
      <path id="Tracé_936" data-name="Tracé 936" d="M15.282,8.52v9.825h-3.6V17.8c-.449.182-.989.273-1.438.455a8.758,8.758,0,0,1-1.528.182A8.042,8.042,0,0,1,5.394,17.8a7.3,7.3,0,0,1-2.7-1.911A11.36,11.36,0,0,1,.809,13.16,7.8,7.8,0,0,1,0,9.7,10.62,10.62,0,0,1,.27,7.337a8.638,8.638,0,0,1,.9-2.092A8.148,8.148,0,0,1,2.516,3.517,8.06,8.06,0,0,1,4.225,2.152a14.24,14.24,0,0,1,2.068-.91A10.25,10.25,0,0,1,8.63.969a8.957,8.957,0,0,1,3.506.728,8.744,8.744,0,0,1,2.787,2l-2.787,2.82a6.29,6.29,0,0,0-1.528-1.183A4.852,4.852,0,0,0,8.63,4.881,7.541,7.541,0,0,0,7.1,5.245a9.787,9.787,0,0,0-1.348.728,2.877,2.877,0,0,0-.989,1.092,9.237,9.237,0,0,0-.629,1.365H15.282V8.52ZM11.6,11.886h-7.1A4.709,4.709,0,0,0,6.2,13.706a4.482,4.482,0,0,0,2.427.728,5.034,5.034,0,0,0,1.618-.273,3.376,3.376,0,0,0,1.348-.819V11.886Z" transform="translate(0 -0.969)" fill="#34db8a" fill-rule="evenodd"/>
      <path id="Tracé_937" data-name="Tracé 937" d="M46.77,18.436h-19.9l.991-1.729L36.773.969l9.006,15.647.991,1.82Zm-10-10.462-3.962,7h7.925Z" transform="translate(-8.86 -0.969)" fill="#34db8a" fill-rule="evenodd"/>
      <path id="Tracé_938" data-name="Tracé 938" d="M73.887,18.346H69.825l-3.7-6.335-1.9,1.81v4.616H60.618V.969h13v3.62L68.742,9.476l5.145,8.869ZM68.832,4.589H64.319V9.2Z" transform="translate(-19.991 -0.969)" fill="#34db8a" fill-rule="evenodd"/>
      <path id="Tracé_939" data-name="Tracé 939" d="M104.206,18.317H84.3l.991-1.717L94.21.969l9.006,15.541.991,1.807Zm-10-10.391-3.962,6.957h7.925Z" transform="translate(-27.802 -0.969)" fill="#34db8a" fill-rule="evenodd"/>
    </g>
  </g>
</svg>
