<svg id="Composant_56_8" data-name="Composant 56 – 8" xmlns="http://www.w3.org/2000/svg" width="101.038" height="38.905" viewBox="0 0 101.038 38.905">
  <path id="color_bckgrnd" data-name="color bckgrnd" d="M19.453,0H81.585a19.453,19.453,0,0,1,0,38.905H19.453A19.453,19.453,0,1,1,19.453,0Z" transform="translate(0 0)" fill=" #0F412B"/>
  <g id="LOGO" transform="translate(21.936 12.459)" style="isolation: isolate">
    <g id="Logo_GARA" opacity="0.54" style="mix-blend-mode: screen;isolation: isolate">
      <path id="Tracé_936" data-name="Tracé 936" d="M12.255,7.034v7.891H9.372v-.438c-.36.146-.793.219-1.153.365A7.014,7.014,0,0,1,6.993,15a6.441,6.441,0,0,1-2.667-.511,5.853,5.853,0,0,1-2.163-1.535A9.123,9.123,0,0,1,.649,10.76,6.271,6.271,0,0,1,0,7.983a8.541,8.541,0,0,1,.216-1.9A6.943,6.943,0,0,1,.937,4.4,6.542,6.542,0,0,1,2.018,3.015a6.466,6.466,0,0,1,1.37-1.1,11.411,11.411,0,0,1,1.658-.731A8.209,8.209,0,0,1,6.921.969a7.174,7.174,0,0,1,2.812.584,7.012,7.012,0,0,1,2.235,1.608L9.732,5.426a5.045,5.045,0,0,0-1.226-.95A3.887,3.887,0,0,0,6.92,4.111,6.04,6.04,0,0,0,5.695,4.4a7.845,7.845,0,0,0-1.081.584,2.309,2.309,0,0,0-.793.877,7.423,7.423,0,0,0-.5,1.1h8.939v.073ZM9.3,9.737H3.6A3.78,3.78,0,0,0,4.974,11.2a3.591,3.591,0,0,0,1.947.584,4.032,4.032,0,0,0,1.3-.219A2.707,2.707,0,0,0,9.3,10.906V9.737Z" transform="translate(0 -0.969)" fill="#34DB8A" fill-rule="evenodd"/>
      <path id="Tracé_937" data-name="Tracé 937" d="M42.828,15H26.867l.795-1.388L34.811.969l7.222,12.566L42.828,15ZM34.811,6.6l-3.178,5.626h6.355Z" transform="translate(-12.427 -0.969)" fill="#34DB8A" fill-rule="evenodd"/>
      <path id="Tracé_938" data-name="Tracé 938" d="M71.259,14.924H68L65.034,9.837l-1.52,1.454V15h-2.9V.969H71.042V3.876L67.133,7.8l4.126,7.123ZM67.205,3.876H63.586V7.583Z" transform="translate(-28.037 -0.969)" fill="#34DB8A" fill-rule="evenodd"/>
      <path id="Tracé_939" data-name="Tracé 939" d="M100.264,14.9H84.3l.795-1.379L92.248.969,99.47,13.451l.794,1.451ZM92.248,6.557,89.07,12.144h6.356Z" transform="translate(-38.992 -0.969)" fill="#34DB8A" fill-rule="evenodd"/>
    </g>
  </g>
</svg>
